<mxfile host="app.diagrams.net" modified="2024-06-04T08:32:57.269Z" agent="Mozilla/5.0 (Macintosh; Intel Mac OS X 10_15_7) AppleWebKit/537.36 (KHTML, like Gecko) Chrome/125.0.0.0 Safari/537.36 Edg/125.0.0.0" version="24.3.1" etag="Bfzr7WDcCAkpJ1eO72tY" type="github">
  <diagram name="第 1 页" id="zw7xM2imADz_a6pj4wSZ">
    <mxGraphModel>
      <root>
        <mxCell id="0" />
        <mxCell id="1" parent="0" />
      </root>
    </mxGraphModel>
  </diagram>
</mxfile>
